<?xml version="1.0" standalone="no"?>
<!DOCTYPE svg PUBLIC "-//W3C//DTD SVG 20010904//EN"
 "http://www.w3.org/TR/2001/REC-SVG-20010904/DTD/svg10.dtd">
<svg version="1.0" xmlns="http://www.w3.org/2000/svg"
 width="544.000000pt" height="544.000000pt" viewBox="0 0 544.000000 544.000000"
 preserveAspectRatio="xMidYMid meet">
<metadata>
Created by potrace 1.14, written by Peter Selinger 2001-2017
</metadata>
<g transform="translate(0.000000,544.000000) scale(0.100000,-0.100000)"
fill="#000000" stroke="none">
<path d="M2253 4993 c252 -329 298 -605 165 -1001 -23 -67 -44 -119 -48 -115
-4 5 -14 37 -24 73 -45 169 -185 382 -353 540 -103 96 -110 100 -70 40 140
-212 130 -459 -31 -765 -76 -142 -173 -283 -387 -560 -135 -175 -301 -428
-384 -586 -44 -86 -114 -264 -125 -322 -2 -12 -9 -44 -15 -71 -21 -88 -26
-159 -25 -341 0 -199 17 -306 73 -475 133 -395 436 -738 816 -921 50 -24 93
-48 97 -54 4 -5 8 -6 8 -1 0 5 7 2 17 -5 9 -8 19 -13 22 -12 12 4 51 -9 51
-18 0 -5 7 -5 17 -2 11 4 14 3 9 -5 -5 -8 -2 -10 9 -6 8 4 22 1 30 -6 8 -7 15
-10 15 -7 0 3 15 1 33 -4 17 -6 46 -13 62 -16 30 -5 48 -21 39 -34 -2 -4 0
-10 5 -14 6 -3 8 3 6 15 -3 17 0 19 23 14 15 -4 35 -11 44 -15 9 -5 26 -9 37
-9 12 0 21 -5 21 -11 0 -6 6 -9 14 -6 8 3 17 1 20 -6 2 -7 5 -4 5 6 1 10 -6
17 -16 18 -13 0 -14 2 -4 6 19 8 44 -26 31 -43 -7 -8 -6 -13 4 -17 9 -4 18 -1
22 5 4 6 3 8 -4 4 -6 -4 -11 1 -12 11 -2 55 -4 59 -29 55 -20 -4 -23 -2 -17
13 5 15 4 16 -8 6 -11 -10 -30 -6 -88 17 -251 97 -538 397 -648 677 -39 99
-67 195 -78 274 -9 57 -8 317 1 351 4 14 9 39 12 55 12 62 60 182 99 248 144
241 394 382 661 372 206 -8 359 -101 439 -268 20 -41 36 -81 36 -90 0 -38 27
-22 119 70 275 276 414 653 413 1123 -1 123 -5 204 -18 298 -10 77 -52 285
-63 315 -6 15 -9 27 -7 27 6 0 -49 169 -86 265 -163 419 -427 716 -790 888
-65 31 -176 77 -186 77 -2 0 17 -26 41 -57z"/>
<path d="M3410 3956 c0 -4 9 -24 20 -46 17 -33 65 -165 76 -210 52 -209 62
-301 59 -550 -3 -230 -5 -255 -31 -395 -38 -213 -81 -365 -151 -535 -170 -415
-452 -697 -753 -754 -213 -41 -398 49 -491 240 -32 65 -34 75 -34 175 l0 106
-40 -41 c-170 -172 -253 -369 -253 -596 0 -319 189 -638 503 -850 28 -19 53
-38 56 -43 3 -5 9 -8 13 -7 15 3 64 -25 59 -34 -3 -5 -1 -6 6 -2 6 4 22 1 34
-6 12 -8 48 -22 79 -32 32 -10 60 -22 63 -26 3 -5 12 -7 20 -3 8 3 15 1 15 -3
0 -5 14 -10 32 -11 29 -2 47 -16 48 -36 0 -5 -5 -5 -10 -2 -6 4 -5 -5 2 -20 7
-17 15 -22 21 -16 7 7 16 7 29 0 11 -6 24 -6 36 0 18 9 58 -10 45 -22 -3 -4 4
-5 15 -2 12 2 24 0 27 -6 4 -5 14 -9 23 -8 11 0 9 4 -8 10 -19 8 -21 12 -10
19 16 10 23 40 9 40 -5 0 -9 -4 -9 -8 0 -4 -9 -8 -21 -9 -15 -1 -19 2 -15 14
5 13 4 14 -8 4 -10 -8 -16 -9 -21 -1 -3 6 -11 8 -16 4 -5 -3 -7 -10 -4 -15 4
-5 2 -9 -3 -9 -5 0 -14 10 -20 23 -7 14 -11 16 -11 7 -1 -13 -2 -13 -12 0 -8
12 -9 11 -5 -5 5 -16 1 -21 -14 -22 -11 -1 -20 2 -20 8 0 5 5 9 12 9 9 0 9 3
0 12 -16 16 -16 33 1 21 6 -6 20 -9 29 -8 10 2 20 0 23 -4 2 -4 23 -7 45 -5
32 2 40 -1 36 -11 -3 -9 0 -12 9 -8 8 3 13 8 10 12 -5 9 32 7 41 -2 4 -4 14
-2 21 5 11 9 17 9 24 -3 6 -9 12 -10 17 -4 4 6 30 11 57 12 78 4 109 8 123 16
17 11 15 -8 -3 -23 -12 -10 -15 -10 -15 1 0 11 -2 11 -10 -1 -12 -19 14 -49
41 -47 20 1 27 17 8 17 -5 0 -7 6 -3 12 5 9 2 8 -9 -1 -10 -8 -20 -11 -23 -8
-3 3 3 12 15 19 12 7 21 18 21 24 0 6 17 16 39 22 48 15 54 15 46 0 -4 -7 0
-5 8 4 8 10 17 15 20 11 4 -3 7 0 7 7 0 7 3 11 6 7 3 -3 26 3 51 14 53 22 56
23 48 7 -4 -7 -1 -6 7 3 7 8 44 30 82 47 187 87 394 246 546 418 234 264 406
627 465 979 3 17 7 44 10 60 3 17 8 64 11 105 3 41 7 92 9 113 1 20 -1 37 -6
37 -5 0 -10 -11 -10 -25 -1 -14 -2 -28 -3 -32 -1 -5 -5 -26 -9 -48 -15 -76
-59 -201 -107 -303 -123 -259 -323 -490 -551 -638 -59 -38 -182 -103 -135 -72
124 84 248 204 354 343 25 32 102 167 102 178 0 7 4 17 9 23 15 14 49 106 71
192 38 143 45 408 15 562 -3 14 -8 36 -10 50 -3 14 -8 39 -11 55 -8 49 -70
224 -104 300 l-32 70 -18 -85 c-53 -257 -221 -618 -390 -840 -49 -63 -49 -63
7 50 58 118 119 305 138 420 3 19 10 60 15 90 17 98 24 212 23 353 -5 421
-137 802 -364 1045 -48 51 -139 128 -139 118z m-606 -3681 c3 -8 1 -15 -4 -15
-6 0 -10 7 -10 15 0 8 2 15 4 15 2 0 6 -7 10 -15z m86 -10 c5 3 10 2 10 -4 0
-21 -17 -19 -46 5 -28 24 -28 24 -2 9 15 -9 32 -14 38 -10z"/>
<path d="M4561 2234 c0 -11 3 -14 6 -6 3 7 2 16 -1 19 -3 4 -6 -2 -5 -13z"/>
<path d="M4555 2181 c-3 -5 -2 -12 3 -15 5 -3 9 1 9 9 0 17 -3 19 -12 6z"/>
<path d="M2335 380 c-3 -5 -1 -10 4 -10 6 0 11 5 11 10 0 6 -2 10 -4 10 -3 0
-8 -4 -11 -10z"/>
<path d="M3575 380 c-3 -5 -1 -10 4 -10 6 0 11 5 11 10 0 6 -2 10 -4 10 -3 0
-8 -4 -11 -10z"/>
<path d="M3469 363 c-13 -16 -12 -17 4 -4 16 13 21 21 13 21 -2 0 -10 -8 -17
-17z"/>
<path d="M2440 365 c0 -2 6 -8 13 -14 10 -8 14 -7 14 2 0 8 -6 14 -14 14 -7 0
-13 -1 -13 -2z"/>
<path d="M2526 358 c3 -4 9 -8 15 -8 5 0 9 4 9 8 0 5 -7 9 -15 9 -8 0 -12 -4
-9 -9z"/>
<path d="M3630 360 c0 -5 5 -10 11 -10 5 0 7 5 4 10 -3 6 -8 10 -11 10 -2 0
-4 -4 -4 -10z"/>
<path d="M3770 359 c0 -5 5 -7 10 -4 6 3 10 8 10 11 0 2 -4 4 -10 4 -5 0 -10
-5 -10 -11z"/>
<path d="M1913 345 c0 -8 4 -12 9 -9 5 3 6 10 3 15 -9 13 -12 11 -12 -6z"/>
<path d="M1954 342 c4 -3 14 -7 22 -8 9 -1 13 0 10 4 -4 3 -14 7 -22 8 -9 1
-13 0 -10 -4z"/>
<path d="M2591 345 c1 -19 18 -51 18 -35 0 8 -4 22 -9 30 -5 8 -9 11 -9 5z"/>
<path d="M3339 348 c-6 -20 -6 -37 1 -33 4 3 11 -2 14 -11 3 -8 10 -13 15 -9
6 3 9 -4 8 -15 -2 -26 -7 -25 -36 5 -24 25 -24 25 -38 5 -15 -21 -9 -45 8 -34
7 4 9 -6 6 -25 -3 -17 -2 -29 2 -26 13 8 7 60 -6 58 -15 -3 -17 13 -3 22 12 7
51 -26 43 -38 -3 -5 4 -4 14 2 22 11 26 58 5 54 -7 -2 -12 4 -12 12 0 8 -5 15
-11 15 -5 0 -7 5 -4 10 3 6 4 10 1 10 -3 0 -6 -1 -7 -2z"/>
<path d="M3375 338 c-5 -7 -4 -10 0 -5 5 4 15 -5 22 -20 12 -26 12 -26 7 -3
-8 33 -20 45 -29 28z"/>
<path d="M3431 343 c0 -5 4 -17 9 -28 8 -17 8 -16 7 8 -1 15 -5 27 -9 27 -4 0
-8 -3 -7 -7z"/>
<path d="M3512 335 c15 -16 20 -17 30 -6 11 11 10 13 0 7 -7 -4 -21 -2 -30 5
-15 12 -15 11 0 -6z"/>
<path d="M2506 315 c9 -14 20 -22 25 -19 5 3 9 -4 9 -14 0 -15 -5 -19 -22 -16
-21 4 -21 4 -3 -5 11 -5 24 -5 28 -1 12 11 3 45 -11 43 -7 -2 -12 3 -12 11 0
8 -7 16 -15 20 -13 5 -13 2 1 -19z"/>
<path d="M2642 325 c2 -14 -7 -25 -32 -37 -38 -20 -26 -25 14 -7 29 14 38 30
25 50 -8 11 -9 9 -7 -6z"/>
<path d="M3271 332 c-1 -17 -30 -46 -38 -38 -3 3 0 14 8 23 12 17 12 17 -4 2
-11 -9 -15 -22 -11 -33 6 -16 9 -15 30 5 13 12 24 18 24 12 0 -6 -7 -16 -15
-23 -8 -7 -15 -18 -15 -24 1 -11 24 15 42 48 7 12 7 16 0 12 -6 -3 -13 2 -15
11 -3 10 -5 12 -6 5z"/>
<path d="M2465 319 c-6 -8 -4 -10 5 -4 10 6 12 4 6 -11 -6 -15 -5 -17 5 -6 9
9 10 15 2 23 -8 8 -13 7 -18 -2z"/>
<path d="M2554 318 c-4 -6 -3 -8 3 -5 6 4 14 0 17 -9 4 -9 9 -15 11 -12 8 7
-5 38 -15 38 -5 0 -12 -5 -16 -12z"/>
<path d="M3690 318 c0 -4 4 -8 9 -8 6 0 12 4 15 8 3 5 -1 9 -9 9 -8 0 -15 -4
-15 -9z"/>
<path d="M2662 290 c-7 -11 -19 -20 -26 -20 -8 0 -18 -5 -22 -12 -5 -8 -2 -9
11 -5 9 4 25 2 34 -5 14 -11 14 -11 4 3 -7 9 -10 19 -6 22 3 4 12 -1 19 -11
12 -16 14 -16 31 2 10 10 12 15 4 11 -11 -6 -13 -4 -8 8 4 12 -10 27 -26 27
-1 0 -8 -9 -15 -20z m31 -30 c-7 -8 -22 24 -16 34 4 5 10 1 13 -10 4 -10 6
-21 3 -24z"/>
<path d="M3510 300 c0 -5 5 -10 10 -10 6 0 10 5 10 10 0 6 -4 10 -10 10 -5 0
-10 -4 -10 -10z"/>
<path d="M3600 300 c-9 -6 -10 -10 -3 -10 6 0 15 5 18 10 8 12 4 12 -15 0z"/>
<path d="M4015 299 c-3 -4 2 -6 10 -5 21 3 28 13 10 13 -9 0 -18 -4 -20 -8z"/>
<path d="M2284 278 c-12 -14 -13 -18 -3 -10 9 6 18 10 21 7 2 -3 5 2 5 10 0
19 0 19 -23 -7z"/>
<path d="M2935 271 c0 -20 4 -27 14 -23 10 4 12 1 7 -9 -4 -8 -1 -6 8 4 8 11
12 26 9 34 -5 13 -3 13 16 2 12 -8 17 -15 11 -17 -6 -2 -15 -13 -21 -25 -9
-20 -9 -20 4 -4 16 19 32 24 21 5 -4 -7 -3 -8 4 -4 7 4 12 2 12 -5 0 -7 3 -9
6 -6 4 4 1 14 -7 24 -12 15 -12 16 4 10 10 -4 21 -7 23 -7 2 0 4 -8 5 -17 0
-10 3 -13 5 -6 3 7 0 22 -7 35 -9 18 -3 15 27 -12 21 -19 32 -26 24 -15 -8 11
-18 22 -21 25 -4 3 -1 11 7 18 8 7 15 10 15 7 1 -3 3 -9 4 -15 1 -5 3 -16 4
-22 1 -7 8 -2 15 12 8 14 12 28 10 32 -5 8 -55 5 -70 -4 -5 -4 -16 -3 -24 2
-9 5 -19 5 -27 -2 -9 -7 -17 -7 -27 1 -10 9 -16 9 -21 1 -5 -7 -11 -8 -19 -1
-9 7 -12 3 -11 -18z m98 5 c4 -10 1 -13 -8 -9 -8 3 -12 9 -9 14 7 12 11 11 17
-5z m-68 -14 c-3 -3 -11 0 -18 7 -9 10 -8 11 6 5 10 -3 15 -9 12 -12z"/>
<path d="M3770 297 c0 -2 6 -10 14 -16 11 -9 16 -9 22 1 4 7 4 10 -1 6 -4 -4
-14 -3 -22 3 -7 6 -13 9 -13 6z"/>
<path d="M1786 278 c3 -5 10 -6 15 -3 13 9 11 12 -6 12 -8 0 -12 -4 -9 -9z"/>
<path d="M1977 275 c-4 -8 -3 -16 1 -19 4 -3 9 4 9 15 2 23 -3 25 -10 4z"/>
<path d="M2485 280 c-3 -6 1 -7 9 -4 18 7 21 14 7 14 -6 0 -13 -4 -16 -10z"/>
<path d="M3450 287 c0 -3 15 -10 32 -16 18 -6 28 -7 23 -2 -12 10 -55 25 -55
18z"/>
<path d="M3640 280 c8 -5 20 -10 25 -10 6 0 3 5 -5 10 -8 5 -19 10 -25 10 -5
0 -3 -5 5 -10z"/>
<path d="M3710 280 c0 -4 7 -7 15 -6 23 3 26 12 5 13 -11 1 -20 -2 -20 -7z"/>
<path d="M3990 280 c0 -5 5 -10 11 -10 5 0 7 5 4 10 -3 6 -8 10 -11 10 -2 0
-4 -4 -4 -10z"/>
<path d="M2193 265 c0 -8 4 -12 9 -9 5 3 6 10 3 15 -9 13 -12 11 -12 -6z"/>
<path d="M3401 273 c-1 -17 16 -25 25 -12 4 7 3 9 -4 5 -5 -3 -13 0 -15 6 -4
9 -6 10 -6 1z"/>
<path d="M2225 259 c-3 -4 2 -6 10 -5 21 3 28 13 10 13 -9 0 -18 -4 -20 -8z"/>
<path d="M2358 263 c7 -3 16 -2 19 1 4 3 -2 6 -13 5 -11 0 -14 -3 -6 -6z"/>
<path d="M2556 255 c-9 -26 -7 -32 5 -12 6 10 9 21 6 23 -2 3 -7 -2 -11 -11z"/>
<path d="M3136 254 c-4 -9 -4 -19 -1 -22 3 -3 5 0 5 6 0 7 5 12 11 12 5 0 8
-4 5 -8 -2 -4 5 -9 16 -9 11 -1 19 -1 17 0 -2 1 -14 10 -25 20 -20 17 -22 17
-28 1z"/>
<path d="M3935 260 c-3 -5 -1 -10 4 -10 6 0 11 5 11 10 0 6 -2 10 -4 10 -3 0
-8 -4 -11 -10z"/>
<path d="M2295 250 c-4 -6 -11 -8 -16 -5 -5 4 -9 1 -9 -4 0 -16 16 -13 30 4 7
8 10 15 7 15 -3 0 -9 -5 -12 -10z"/>
<path d="M2717 253 c-4 -3 -7 -11 -7 -17 0 -6 5 -5 12 2 6 6 9 14 7 17 -3 3
-9 2 -12 -2z"/>
<path d="M3226 245 c-9 -26 -7 -32 5 -12 6 10 9 21 6 23 -2 3 -7 -2 -11 -11z"/>
<path d="M2490 240 c0 -5 5 -10 10 -10 6 0 10 5 10 10 0 6 -4 10 -10 10 -5 0
-10 -4 -10 -10z"/>
<path d="M2576 234 c-3 -9 -2 -12 5 -9 5 4 17 1 26 -7 15 -12 15 -11 2 10 -16
26 -25 28 -33 6z"/>
<path d="M2754 238 c-4 -6 -3 -8 4 -4 5 3 13 0 15 -6 3 -8 6 -6 6 5 1 19 -14
23 -25 5z"/>
<path d="M2829 237 c6 -8 8 -17 4 -20 -3 -4 -1 -7 5 -7 14 0 14 2 6 24 -3 9
-11 16 -16 16 -7 0 -6 -5 1 -13z"/>
<path d="M3265 241 c-3 -6 3 -9 14 -8 11 0 17 5 15 9 -7 11 -22 10 -29 -1z"/>
<path d="M3533 235 c0 -8 4 -12 9 -9 5 3 6 10 3 15 -9 13 -12 11 -12 -6z"/>
<path d="M3607 237 c3 -4 8 -6 11 -3 3 3 10 1 17 -4 8 -7 12 -6 12 3 0 7 -11
13 -23 13 -12 0 -20 -4 -17 -9z"/>
<path d="M2036 222 c-3 -5 1 -9 9 -9 8 0 12 4 9 9 -3 4 -7 8 -9 8 -2 0 -6 -4
-9 -8z"/>
<path d="M2130 219 c0 -5 5 -7 10 -4 6 3 10 8 10 11 0 2 -4 4 -10 4 -5 0 -10
-5 -10 -11z"/>
<path d="M2635 221 c-3 -5 0 -13 6 -17 7 -4 9 -3 5 4 -3 5 0 13 6 15 9 4 10 6
1 6 -6 1 -14 -3 -18 -8z"/>
<path d="M2673 207 c-1 -11 -1 -18 0 -16 2 2 8 11 15 20 9 12 9 16 -1 16 -7 0
-14 -9 -14 -20z"/>
<path d="M3388 223 c6 -2 18 -2 25 0 6 3 1 5 -13 5 -14 0 -19 -2 -12 -5z"/>
<path d="M3815 220 c-3 -5 -1 -10 4 -10 6 0 11 5 11 10 0 6 -2 10 -4 10 -3 0
-8 -4 -11 -10z"/>
<path d="M3895 221 c-3 -5 -2 -12 3 -15 5 -3 9 1 9 9 0 17 -3 19 -12 6z"/>
<path d="M2415 211 c-3 -5 -2 -12 3 -15 5 -3 9 1 9 9 0 17 -3 19 -12 6z"/>
<path d="M3210 200 c0 -5 5 -10 11 -10 5 0 7 5 4 10 -3 6 -8 10 -11 10 -2 0
-4 -4 -4 -10z"/>
<path d="M3510 196 c7 -7 13 -7 20 0 6 6 3 10 -10 10 -13 0 -16 -4 -10 -10z"/>
<path d="M3333 185 c0 -8 4 -12 9 -9 5 3 6 10 3 15 -9 13 -12 11 -12 -6z"/>
<path d="M2456 182 c-3 -5 1 -9 9 -9 8 0 12 4 9 9 -3 4 -7 8 -9 8 -2 0 -6 -4
-9 -8z"/>
<path d="M2525 180 c-3 -6 1 -7 9 -4 18 7 21 14 7 14 -6 0 -13 -4 -16 -10z"/>
</g>
</svg>
